<svg xmlns="http://www.w3.org/2000/svg" viewBox="0 0 1024 1024" role="img" aria-label="October Cabin OCT-10 logo">
  <defs>
    <radialGradient id="bg" cx="48%" cy="42%" r="72%">
      <stop offset="0" stop-color="#4c6a91"/>
      <stop offset="1" stop-color="#294463"/>
    </radialGradient>
    <linearGradient id="body" x1="0" y1="0" x2="1" y2="1">
      <stop offset="0" stop-color="#fff8e5"/>
      <stop offset=".48" stop-color="#ffe3b1"/>
      <stop offset="1" stop-color="#d99d3f"/>
    </linearGradient>
    <linearGradient id="glass" x1="0" y1="0" x2="1" y2="1">
      <stop offset="0" stop-color="#eefdff"/>
      <stop offset="1" stop-color="#85d8ee"/>
    </linearGradient>
    <linearGradient id="ring" x1="0" y1="0" x2="1" y2="1">
      <stop offset="0" stop-color="#dedbd6"/>
      <stop offset="1" stop-color="#928b86"/>
    </linearGradient>
    <filter id="shadow" x="-20%" y="-20%" width="140%" height="140%">
      <feDropShadow dx="0" dy="10" stdDeviation="9" flood-color="#172233" flood-opacity=".26"/>
    </filter>
  </defs>

  <rect width="1024" height="1024" rx="92" fill="url(#bg)"/>

  <g filter="url(#shadow)">
    <circle cx="506" cy="570" r="311" fill="none" stroke="#090909" stroke-width="17"/>
    <circle cx="506" cy="570" r="292" fill="none" stroke="url(#ring)" stroke-width="60"/>

    <path d="M744 499c89-13 159-50 212-113 25 48 15 92-27 132-44 42-102 66-171 71z" fill="#f2a51f" stroke="#c06d00" stroke-width="8" stroke-linejoin="round"/>
    <path d="M753 466c74 19 137 6 188-38M762 502c72 25 134 22 186-8M758 541c67 30 126 43 178 40" fill="none" stroke="#ffbf3a" stroke-width="11" stroke-linecap="round"/>

    <path d="M650 341c50-74 139-112 229-88 16 45 4 91-37 134-57 17-119 1-192-46z" fill="#ffe8bf" stroke="#080808" stroke-width="8" stroke-linejoin="round"/>
    <path d="M811 252c19 45 16 88-9 128" fill="none" stroke="#db840b" stroke-width="14"/>
    <path d="M712 328l91-55c16-9 35-4 44 12 9 15 4 35-12 44l-90 56z" fill="#9d9da2" stroke="#080808" stroke-width="8" stroke-linejoin="round"/>
    <path d="M747 359l63-39M783 338l29-18" stroke="#48484d" stroke-width="8" stroke-linecap="round"/>
    <path d="M872 266l33-7 9 40-31 21zM887 336l34 12-19 42-34-18z" fill="#68666d" stroke="#080808" stroke-width="7" stroke-linejoin="round"/>

    <path d="M288 281c9-85 72-139 166-147 101-8 176 48 196 144-121-23-242-22-362 3z" fill="url(#glass)" stroke="#080808" stroke-width="9"/>
    <path d="M332 172c28-25 59-38 96-38" fill="none" stroke="#fff" stroke-width="16" stroke-linecap="round" opacity=".8"/>

    <path d="M126 332c118-76 245-107 383-99 94 5 178 22 251 53 48 20 77 57 86 111-84 78-211 132-379 161-150 26-267-2-353-84-34-33-50-70-48-112 13-10 33-20 60-30z" fill="url(#body)" stroke="#080808" stroke-width="9" stroke-linejoin="round"/>
    <path d="M125 333c-31 19-42 48-31 85 19 37 47 71 83 101 58-46 83-111 74-194-45-2-87 1-126 8z" fill="#ec2425" stroke="#080808" stroke-width="8" stroke-linejoin="round"/>
    <path d="M250 325c42-27 111-51 205-70" fill="none" stroke="#fff" stroke-width="28" stroke-linecap="round" opacity=".9"/>

    <path d="M417 368c69 41 134 48 198 22-9 44-45 71-108 81-41-12-71-45-90-103z" fill="#fff8e7" stroke="#080808" stroke-width="7" stroke-linejoin="round"/>
    <path d="M548 413c21 2 43-5 67-23-1 22-11 41-30 57-22-2-35-14-37-34z" fill="#e4232e" stroke="#080808" stroke-width="5"/>

    <circle cx="356" cy="433" r="42" fill="#ef9d13" stroke="#080808" stroke-width="7"/>
    <path d="M356 433v40M356 433l-35-20M356 433l33-28" stroke="#080808" stroke-width="7" stroke-linecap="round"/>
    <text x="418" y="463" font-family="Arial Black, Arial, sans-serif" font-size="43" font-weight="900" fill="#67646b" transform="rotate(14 418 463)">OCT-10</text>

    <path d="M336 547c116 34 239 22 367-38-39 55-106 93-202 116-78-6-133-32-165-78z" fill="#b4aead" stroke="#080808" stroke-width="8" stroke-linejoin="round"/>
    <path d="M430 580c59 18 116 14 173-10-17 33-55 55-114 67-39-8-59-27-59-57z" fill="#29aeda" stroke="#080808" stroke-width="7"/>
    <path d="M703 468l62 18-14 44-65-12zM723 522l69-3 2 45-69 13zM686 578l66 29-30 41-65-28z" fill="#5e5961" stroke="#080808" stroke-width="7" stroke-linejoin="round"/>

    <path d="M414 624c-50 6-89 31-115 75 45-31 84-29 119 6 16-34 15-61-4-81zM494 623c-32 46-36 93-13 142 20-40 49-60 88-59-7-41-32-69-75-83zM610 611c-18 50-7 93 35 129 11-43 39-72 84-88-28-35-68-49-119-41z" fill="#d9f9ff" stroke="#080808" stroke-width="7" stroke-linejoin="round"/>
    <path d="M303 741c58 25 126 38 202 39 77 1 146-13 208-41" fill="none" stroke="#080808" stroke-width="8" stroke-linecap="round"/>

    <text x="214" y="725" font-family="Arial Black, Arial, sans-serif" font-size="72" font-weight="900" fill="#0b7895" stroke="#062b38" stroke-width="3" transform="rotate(56 214 725)">OCTOBER</text>
    <text x="582" y="818" font-family="Arial Black, Arial, sans-serif" font-size="72" font-weight="900" fill="#0b7895" stroke="#062b38" stroke-width="3" transform="rotate(-48 582 818)">CABIN</text>
  </g>
</svg>
